<svg id="Layer_1" data-name="Layer 1" xmlns="http://www.w3.org/2000/svg" viewBox="0 0 177.12 177.46"><defs><style>.cls-1{fill:none;}.cls-2{fill:#ff5f00;}.cls-3{fill:#eb001b;}.cls-4{fill:#f79e1b;}</style></defs><title>mc_idcheck_vrt_rgb_pos</title><rect class="cls-1" width="177.12" height="177.46"/><path d="M450.14,363.62h-.22v.59h-.11v-.59h-.22v-.11h.56Zm.86.59h-.11v-.57l-.2.5h-.12l-.2-.5v.57h-.11v-.7h.17l.2.5.2-.5H451Zm-105.33,0h-1.53v-17.5h1.53Zm11.63-17.5a11.88,11.88,0,0,1,3.94.61,8.37,8.37,0,0,1,3,1.75,7.67,7.67,0,0,1,1.89,2.76,10.28,10.28,0,0,1,0,7.26,7.66,7.66,0,0,1-1.89,2.76,8.37,8.37,0,0,1-3,1.75,11.88,11.88,0,0,1-3.94.61h-6.39v-17.5Zm-4.86,1.45v14.6h4.86a10.08,10.08,0,0,0,3.38-.52,6.84,6.84,0,0,0,2.46-1.47,6.13,6.13,0,0,0,1.51-2.3,9.11,9.11,0,0,0,0-6,6.19,6.19,0,0,0-1.51-2.31,6.74,6.74,0,0,0-2.46-1.47,10.21,10.21,0,0,0-3.37-.51Zm33-1.65a9.4,9.4,0,0,1,2.18.25,8.84,8.84,0,0,1,2,.72,7.87,7.87,0,0,1,1.66,1.13,6.94,6.94,0,0,1,1.27,1.5l-1.27.85a6.2,6.2,0,0,0-1.07-1.24,6.65,6.65,0,0,0-1.36-.94,7,7,0,0,0-1.6-.59,7.53,7.53,0,0,0-1.77-.21,7.76,7.76,0,0,0-2.91.54,6.92,6.92,0,0,0-2.34,1.52,7.12,7.12,0,0,0-1.56,2.36,8.45,8.45,0,0,0,0,6.1,7.11,7.11,0,0,0,1.56,2.36,6.92,6.92,0,0,0,2.34,1.52,7.76,7.76,0,0,0,2.91.54,7.64,7.64,0,0,0,1.76-.2,6.72,6.72,0,0,0,3-1.52,6,6,0,0,0,1.07-1.25l1.25.91a7.45,7.45,0,0,1-1.29,1.47,8,8,0,0,1-1.65,1.11,8.53,8.53,0,0,1-1.94.71,9.77,9.77,0,0,1-5.71-.42,8.59,8.59,0,0,1-2.84-1.84,8.46,8.46,0,0,1-1.88-2.83,9.94,9.94,0,0,1,0-7.23,8.46,8.46,0,0,1,1.88-2.83,8.59,8.59,0,0,1,2.84-1.84A9.43,9.43,0,0,1,385.48,346.51Zm12.26,8a4.52,4.52,0,0,1,.82-1,4.39,4.39,0,0,1,1-.69,5.13,5.13,0,0,1,1.15-.4,5.64,5.64,0,0,1,1.2-.13,5.86,5.86,0,0,1,2,.33,4.54,4.54,0,0,1,1.57.94,4.12,4.12,0,0,1,1,1.49,5.21,5.21,0,0,1,.36,2v7.21h-1.43v-6.77a4.81,4.81,0,0,0-.25-1.6,3.18,3.18,0,0,0-.74-1.21,3.23,3.23,0,0,0-1.19-.76,4.52,4.52,0,0,0-1.6-.26,4.2,4.2,0,0,0-1.54.28,3.7,3.7,0,0,0-1.25.8,3.77,3.77,0,0,0-.84,1.24,4,4,0,0,0-.31,1.58v6.7h-1.42v-18h1.42Zm18.44-2.22a5.36,5.36,0,0,1,2.18.44,5.18,5.18,0,0,1,1.74,1.24,5.88,5.88,0,0,1,1.16,1.9,6.86,6.86,0,0,1,.44,2.42c0,.11,0,.21,0,.31s0,.19,0,.28h-9.86a5.06,5.06,0,0,0,.46,1.82,4.31,4.31,0,0,0,1,1.36,4.22,4.22,0,0,0,1.41.84,4.94,4.94,0,0,0,1.69.29,5.22,5.22,0,0,0,2.21-.45,6.19,6.19,0,0,0,1.76-1.23l.76,1a7,7,0,0,1-1.14.94,6.17,6.17,0,0,1-1.19.6,5.93,5.93,0,0,1-1.23.31,9.21,9.21,0,0,1-1.26.09,6.21,6.21,0,0,1-2.37-.44,5.52,5.52,0,0,1-1.87-1.24,5.6,5.6,0,0,1-1.22-1.91,6.67,6.67,0,0,1-.44-2.46,6.57,6.57,0,0,1,.44-2.44A5.81,5.81,0,0,1,412,354a5.53,5.53,0,0,1,1.85-1.26A5.88,5.88,0,0,1,416.18,352.26Zm0,1.26a4.29,4.29,0,0,0-1.64.31,4.13,4.13,0,0,0-1.31.85,4.41,4.41,0,0,0-.92,1.29,5.14,5.14,0,0,0-.46,1.65h8.41a5.1,5.1,0,0,0-.41-1.67,4.2,4.2,0,0,0-.88-1.29,3.92,3.92,0,0,0-2.79-1.14Zm14.24-1.26a6.23,6.23,0,0,1,2.43.47,5.21,5.21,0,0,1,1.91,1.36l-.92,1a5.14,5.14,0,0,0-1.54-1.07,4.64,4.64,0,0,0-1.91-.38,4.52,4.52,0,0,0-1.79.36,4.41,4.41,0,0,0-1.44,1,4.5,4.5,0,0,0-1,1.5,5.39,5.39,0,0,0,0,3.79,4.38,4.38,0,0,0,2.4,2.47,4.49,4.49,0,0,0,1.79.36,4.61,4.61,0,0,0,1.93-.4,5.37,5.37,0,0,0,1.56-1.06l.89,1a5.32,5.32,0,0,1-1.91,1.36,6.18,6.18,0,0,1-2.42.47,6.25,6.25,0,0,1-2.43-.46,5.68,5.68,0,0,1-3.15-3.19,6.77,6.77,0,0,1,0-4.82,5.67,5.67,0,0,1,3.15-3.2A6.24,6.24,0,0,1,430.4,352.26Zm9.13,5.15h1.91l5-5h1.8l-5.6,5.55,5.7,6.21h-1.81l-5-5.51h-1.91v5.51H438.1v-18h1.42Zm-80.57-19.72v-6a3.56,3.56,0,0,0-3.76-3.8,3.7,3.7,0,0,0-3.36,1.7,3.51,3.51,0,0,0-3.16-1.7,3.16,3.16,0,0,0-2.8,1.42v-1.18h-2.08v9.56h2.1v-5.3a2.24,2.24,0,0,1,2.34-2.54c1.38,0,2.08.9,2.08,2.52v5.32h2.1v-5.3a2.25,2.25,0,0,1,2.34-2.54c1.42,0,2.1.9,2.1,2.52v5.32ZM390,328.13h-3.4v-2.9h-2.1v2.9h-1.94V330h1.94v4.36c0,2.22.86,3.54,3.32,3.54a4.88,4.88,0,0,0,2.6-.74l-.6-1.78A3.84,3.84,0,0,1,388,336c-1,0-1.38-.64-1.38-1.6V330H390Zm17.74-.24a2.82,2.82,0,0,0-2.52,1.4v-1.16h-2.06v9.56h2.08v-5.36c0-1.58.68-2.46,2-2.46a3.39,3.39,0,0,1,1.3.24l.64-2a4.45,4.45,0,0,0-1.48-.26Zm-26.82,1a7.15,7.15,0,0,0-3.9-1c-2.42,0-4,1.16-4,3.06,0,1.56,1.16,2.52,3.3,2.82l1,.14c1.14.16,1.68.46,1.68,1,0,.74-.76,1.16-2.18,1.16a5.09,5.09,0,0,1-3.18-1l-1,1.62a6.9,6.9,0,0,0,4.14,1.24c2.76,0,4.36-1.3,4.36-3.12s-1.26-2.56-3.34-2.86l-1-.14c-.9-.12-1.62-.3-1.62-.94s.68-1.12,1.82-1.12a6.16,6.16,0,0,1,3,.82Zm55.71-1a2.82,2.82,0,0,0-2.52,1.4v-1.16h-2.06v9.56h2.08v-5.36c0-1.58.68-2.46,2-2.46a3.39,3.39,0,0,1,1.3.24l.64-2a4.45,4.45,0,0,0-1.48-.26Zm-26.8,5a4.83,4.83,0,0,0,5.1,5,5,5,0,0,0,3.44-1.14l-1-1.68a4.2,4.2,0,0,1-2.5.86,3.07,3.07,0,0,1,0-6.12,4.2,4.2,0,0,1,2.5.86l1-1.68a5,5,0,0,0-3.44-1.14,4.83,4.83,0,0,0-5.1,5Zm19.48,0v-4.78h-2.08v1.16a3.63,3.63,0,0,0-3-1.4,5,5,0,0,0,0,10,3.63,3.63,0,0,0,3-1.4v1.16h2.08Zm-7.74,0a2.89,2.89,0,1,1,2.9,3.06,2.87,2.87,0,0,1-2.9-3.06Zm-25.1-5a5,5,0,0,0,.14,10,5.81,5.81,0,0,0,3.92-1.34l-1-1.54a4.55,4.55,0,0,1-2.78,1,2.65,2.65,0,0,1-2.86-2.34H401c0-.26,0-.52,0-.8,0-3-1.86-5-4.54-5Zm0,1.86a2.37,2.37,0,0,1,2.42,2.32h-5a2.46,2.46,0,0,1,2.54-2.32Zm52.17,3.16v-8.62h-2.08v5a3.63,3.63,0,0,0-3-1.4,5,5,0,0,0,0,10,3.63,3.63,0,0,0,3-1.4v1.16h2.08Zm-7.74,0a2.89,2.89,0,1,1,2.9,3.06,2.87,2.87,0,0,1-2.9-3.06Zm-70.23,0v-4.78h-2.08v1.16a3.63,3.63,0,0,0-3-1.4,5,5,0,0,0,0,10,3.63,3.63,0,0,0,3-1.4v1.16h2.08Zm-7.74,0a2.89,2.89,0,1,1,2.9,3.06A2.87,2.87,0,0,1,362.93,332.91Zm89.17,3.39a1,1,0,0,1,.38.07,1,1,0,0,1,.31.2,1,1,0,0,1,.21.3.93.93,0,0,1,0,.74,1,1,0,0,1-.21.3,1,1,0,0,1-.31.2.94.94,0,0,1-.38.08,1,1,0,0,1-.9-.58.94.94,0,0,1,0-.74,1,1,0,0,1,.21-.3,1,1,0,0,1,.31-.2A1,1,0,0,1,452.1,336.3Zm0,1.69a.71.71,0,0,0,.29-.06.75.75,0,0,0,.23-.16.74.74,0,0,0,0-1,.74.74,0,0,0-.23-.16.72.72,0,0,0-.29-.06.75.75,0,0,0-.29.06.73.73,0,0,0-.24.16.74.74,0,0,0,0,1,.74.74,0,0,0,.24.16A.74.74,0,0,0,452.1,338Zm.06-1.19a.4.4,0,0,1,.26.08.25.25,0,0,1,.09.21.24.24,0,0,1-.07.18.35.35,0,0,1-.21.09l.29.33h-.23l-.27-.33h-.09v.33h-.19v-.88Zm-.22.17v.24h.22a.21.21,0,0,0,.12,0,.1.1,0,0,0,0-.09.1.1,0,0,0,0-.09.21.21,0,0,0-.12,0Z" transform="translate(-307.44 -217.27)"/><rect class="cls-2" x="72.81" y="38.01" width="31.5" height="56.61"/><path id="_Path_" data-name="&lt;Path&gt;" class="cls-3" d="M382.25,283.59A35.94,35.94,0,0,1,396,255.28a36,36,0,1,0,0,56.61A35.94,35.94,0,0,1,382.25,283.59Z" transform="translate(-307.44 -217.27)"/><path class="cls-4" d="M450.81,305.9v-1.16h.47v-.24h-1.19v.24h.47v1.16Zm2.31,0v-1.4h-.36l-.42,1-.42-1h-.37v1.4h.26v-1.05l.39.91h.27l.39-.91v1.06Z" transform="translate(-307.44 -217.27)"/><path class="cls-4" d="M454.25,283.59A36,36,0,0,1,396,311.89a36,36,0,0,0,0-56.61,36,36,0,0,1,58.25,28.3Z" transform="translate(-307.44 -217.27)"/></svg>